<svg height="512" viewBox="0 0 192 192" width="512" xmlns="http://www.w3.org/2000/svg"><g id="_17-screen" data-name="17-screen"><path d="m192 0h-192v16h8v120a8 8 0 0 0 8 8h72v16h-16v16h48v-16h-16v-16h72a8 8 0 0 0 8-8v-120h8zm-24 128h-144v-112h144z"/><path d="m72 104a40 40 0 1 0 -40-40 40.045 40.045 0 0 0 40 40zm-21.655-50.341 11.361 11.361-8.906 13.361a23.96 23.96 0 0 1 -2.453-24.722zm21.655 34.341a23.941 23.941 0 0 1 -5.9-.735l10.181-15.265h18.343a24.039 24.039 0 0 1 -22.624 16zm22.624-32h-19.31l-13.655-13.655a23.99 23.99 0 0 1 32.965 13.655z"/><circle cx="152" cy="112" r="8"/><circle cx="128" cy="112" r="8"/><circle cx="104" cy="112" r="8"/><path d="m120 24h40v16h-40z"/><path d="m128 48h32v16h-32z"/><path d="m136 72h24v16h-24z"/></g></svg>